<svg width="100" height="100" viewBox="0 0 100 100" fill="none" xmlns="http://www.w3.org/2000/svg">
<rect width="100" height="100" rx="10" fill="#009EE3"/>
<path d="M78.693 42.109C78.411 40.169 77.29 38.358 75.753 36.93C73.23 34.62 69.87 33.33 66.228 33.33H53.072V52.887H66.03C69.362 52.887 72.373 51.682 74.654 49.526C76.81 47.455 77.929 44.82 78.618 41.98C78.655 41.851 78.692 41.722 78.693 41.593V42.109ZM66.03 48.06C64.91 48.06 63.832 47.641 62.986 46.807C62.104 45.936 61.642 44.819 61.642 43.573C61.642 42.365 62.104 41.285 62.986 40.451C63.832 39.617 64.91 39.161 66.03 39.161C67.15 39.161 68.228 39.58 69.074 40.414C69.956 41.285 70.381 42.402 70.381 43.648C70.381 44.856 69.919 45.936 69.037 46.807C68.191 47.641 67.113 48.06 66.03 48.06Z" fill="white"/>
<path d="M47.747 66.669H34.591V56.96H47.747V47.252H34.591V37.544H47.747V27.836H25.325V66.669H47.747Z" fill="white"/>
</svg>
