<svg width="100" height="100" viewBox="0 0 100 100" fill="none" xmlns="http://www.w3.org/2000/svg">
<rect width="100" height="100" rx="10" fill="#003087"/>
<path d="M64.6758 48.4338C64.0805 52.4439 60.8407 55.3861 56.6653 55.3861H49.1914L47.5029 66.6667H36.336L42.5023 27.7778H58.6083C63.4563 27.7778 67.3196 31.4239 66.4259 36.5683C65.9102 39.5401 64.1332 41.777 61.6425 42.8252C64.218 43.8732 65.234 45.9692 64.6758 48.4338Z" fill="#009CDE"/>
<path d="M72.0722 52.7056C71.4398 56.9934 68.0494 60.1067 63.626 60.1067H56.5593L54.7925 71.9444H43.6258L50.4647 27.7778H68.8021C73.5358 27.7778 77.362 31.5721 76.4312 36.8872C75.897 39.9622 74.0456 42.2733 71.4398 43.3583C74.1956 44.4434 75.3263 46.5765 74.8817 49.0789L72.0722 52.7056Z" fill="#002F86"/>
</g>
</svg>
