<svg width="100" height="100" viewBox="0 0 100 100" fill="none" xmlns="http://www.w3.org/2000/svg">
<rect width="100" height="100" rx="10" fill="#635BFF"/>
<path d="M84.341 55.578H68.508V79.25H84.341V55.578ZM56.34 20.75C46.521 20.75 38.669 28.566 38.669 38.385V55.578H54.502V38.385C54.502 37.491 55.347 36.682 56.34 36.682C57.333 36.682 58.142 37.491 58.142 38.385V55.578H73.975V38.385C73.975 28.566 66.158 20.75 56.34 20.75ZM25.564 55.578H15.658V79.25H25.564C30.516 79.25 34.501 75.265 34.501 70.312V64.53C34.501 59.577 30.516 55.578 25.564 55.578Z" fill="white"/>
</svg>
